<svg width="287" height="63" viewBox="0 0 287 63" fill="none" xmlns="http://www.w3.org/2000/svg">
<path d="M31.5 5.25C45.9979 5.25 57.75 17.0021 57.75 31.5C57.7534 35.5755 56.8063 39.5956 54.9841 43.2411C53.1618 46.8865 50.5146 50.0567 47.2526 52.5H52.5C53.1962 52.5 53.8639 52.7766 54.3562 53.2688C54.8484 53.7611 55.125 54.4288 55.125 55.125C55.125 55.8212 54.8484 56.4889 54.3562 56.9812C53.8639 57.4734 53.1962 57.75 52.5 57.75H31.5C17.0021 57.75 5.25 45.9979 5.25 31.5C5.25 17.0021 17.0021 5.25 31.5 5.25ZM31.5 36.75C30.1076 36.75 28.7723 37.3031 27.7877 38.2877C26.8031 39.2723 26.25 40.6076 26.25 42C26.25 43.3924 26.8031 44.7277 27.7877 45.7123C28.7723 46.6969 30.1076 47.25 31.5 47.25C32.8924 47.25 34.2277 46.6969 35.2123 45.7123C36.1969 44.7277 36.75 43.3924 36.75 42C36.75 40.6076 36.1969 39.2723 35.2123 38.2877C34.2277 37.3031 32.8924 36.75 31.5 36.75ZM21 26.25C19.6076 26.25 18.2723 26.8031 17.2877 27.7877C16.3031 28.7723 15.75 30.1076 15.75 31.5C15.75 32.8924 16.3031 34.2277 17.2877 35.2123C18.2723 36.1969 19.6076 36.75 21 36.75C22.3924 36.75 23.7277 36.1969 24.7123 35.2123C25.6969 34.2277 26.25 32.8924 26.25 31.5C26.25 30.1076 25.6969 28.7723 24.7123 27.7877C23.7277 26.8031 22.3924 26.25 21 26.25ZM42 26.25C40.6076 26.25 39.2723 26.8031 38.2877 27.7877C37.3031 28.7723 36.75 30.1076 36.75 31.5C36.75 32.8924 37.3031 34.2277 38.2877 35.2123C39.2723 36.1969 40.6076 36.75 42 36.75C43.3924 36.75 44.7277 36.1969 45.7123 35.2123C46.6969 34.2277 47.25 32.8924 47.25 31.5C47.25 30.1076 46.6969 28.7723 45.7123 27.7877C44.7277 26.8031 43.3924 26.25 42 26.25ZM31.5 15.75C30.1076 15.75 28.7723 16.3031 27.7877 17.2877C26.8031 18.2723 26.25 19.6076 26.25 21C26.25 22.3924 26.8031 23.7277 27.7877 24.7123C28.7723 25.6969 30.1076 26.25 31.5 26.25C32.8924 26.25 34.2277 25.6969 35.2123 24.7123C36.1969 23.7277 36.75 22.3924 36.75 21C36.75 19.6076 36.1969 18.2723 35.2123 17.2877C34.2277 16.3031 32.8924 15.75 31.5 15.75Z" fill="white"/>
<path d="M95.7812 14.0234C93.3438 14.8359 91.4609 16.1641 90.1328 18.0078C88.8203 19.8359 88.1641 22.1094 88.1641 24.8281C88.1641 25.8594 88.2734 26.6719 88.4922 27.2656C88.5391 27.4375 88.6172 27.6094 88.7266 27.7812C88.7891 27.8906 88.8203 28.0078 88.8203 28.1328C87.1953 28.1328 85.9531 27.8047 85.0938 27.1484C84.1562 26.4297 83.6875 25.3047 83.6875 23.7734C83.6875 22.7734 83.8906 21.7578 84.2969 20.7266C84.7031 19.6953 85.2812 18.6953 86.0312 17.7266C86.7656 16.7891 87.6172 15.9141 88.5859 15.1016C89.5703 14.2734 90.6328 13.5547 91.7734 12.9453C92.9141 12.3203 94.0938 11.8438 95.3125 11.5156C96.5469 11.1719 97.7656 11 98.9688 11C100.156 11 101.367 11.2266 102.602 11.6797L101.5 36.9688L112.07 11.6797H118.984L113.945 47H107.031L110.102 25.4375L101.078 47H94.4922L95.4531 25.3438L87.4375 47H83.5938L95.7812 14.0234ZM125.172 47.1875C122.797 47.1875 120.961 46.6094 119.664 45.4531C118.211 44.1719 117.484 42.2266 117.484 39.6172C117.484 38.6328 117.586 37.5469 117.789 36.3594C117.992 35.1562 118.305 33.9453 118.727 32.7266C119.695 29.8203 121.078 27.5 122.875 25.7656C125.047 23.6406 127.633 22.5781 130.633 22.5781C134.742 22.5781 136.797 25.1328 136.797 30.2422V30.2891C136.891 30.3203 136.969 30.3359 137.031 30.3359H137.312C138.375 30.3359 139.633 30.0391 141.086 29.4453C142.367 28.9141 143.578 28.25 144.719 27.4531L145.141 28.7656C144.203 29.75 142.992 30.5859 141.508 31.2734C140.039 31.9609 138.414 32.4531 136.633 32.75C136.445 34.9219 136.023 36.9062 135.367 38.7031C134.711 40.4844 133.867 42.0156 132.836 43.2969C131.82 44.5469 130.656 45.5078 129.344 46.1797C128.031 46.8516 126.641 47.1875 125.172 47.1875ZM127.094 42.875C127.656 42.875 128.227 42.625 128.805 42.125C129.398 41.6094 129.953 40.8984 130.469 39.9922C130.984 39.0859 131.43 38.0234 131.805 36.8047C132.18 35.5859 132.461 34.2812 132.648 32.8906C132.18 32.7656 131.844 32.5312 131.641 32.1875C131.453 31.8438 131.359 31.4062 131.359 30.875C131.359 30.2188 131.492 29.6719 131.758 29.2344C132.023 28.7969 132.391 28.4766 132.859 28.2734C132.797 27.2578 132.633 26.5312 132.367 26.0938C132.227 25.875 132.047 25.7188 131.828 25.625C131.625 25.5312 131.359 25.4844 131.031 25.4844C129.953 25.4844 128.898 26.2969 127.867 27.9219C126.914 29.3906 126.133 31.2031 125.523 33.3594C124.93 35.4688 124.633 37.3438 124.633 38.9844C124.633 39.7812 124.672 40.4297 124.75 40.9297C124.844 41.4297 124.992 41.8203 125.195 42.1016C125.383 42.3828 125.625 42.5859 125.922 42.7109C126.219 42.8203 126.609 42.875 127.094 42.875ZM144.719 47.2812C142.859 47.2812 141.414 46.8125 140.383 45.875C139.352 44.9219 138.836 43.5078 138.836 41.6328C138.836 40.8516 138.914 40.0781 139.07 39.3125L142.516 23H149.43L145.984 39.3125C145.812 40.0781 145.727 40.6562 145.727 41.0469C145.727 41.5469 145.859 41.9375 146.125 42.2188C146.391 42.5 146.805 42.6406 147.367 42.6406C148.117 42.6406 148.852 42.375 149.57 41.8438C150.289 41.3125 150.969 40.5781 151.609 39.6406C152.203 38.7812 152.75 37.7812 153.25 36.6406C153.766 35.5 154.203 34.3203 154.562 33.1016C154.906 31.9141 155.172 30.7578 155.359 29.6328C155.562 28.4922 155.664 27.4844 155.664 26.6094C155.602 26.75 155.375 26.8672 154.984 26.9609C154.734 27.0391 154.453 27.0781 154.141 27.0781C153.594 27.0781 153.164 26.8125 152.852 26.2812C152.555 25.8281 152.406 25.2812 152.406 24.6406C152.406 23.8594 152.656 23.2344 153.156 22.7656C153.656 22.2812 154.398 22.0391 155.383 22.0391C156.445 22.0391 157.234 22.4688 157.75 23.3281C158.188 24.0469 158.406 25.0078 158.406 26.2109C158.406 27.5391 158.289 28.9766 158.055 30.5234C157.836 32.0703 157.5 33.5938 157.047 35.0938C155.953 38.6562 154.477 41.4609 152.617 43.5078C150.367 46.0234 147.734 47.2812 144.719 47.2812ZM167.148 20.3984C166.633 20.3984 166.141 20.3047 165.672 20.1172C165.203 19.9141 164.797 19.6406 164.453 19.2969C164.109 18.9688 163.836 18.5703 163.633 18.1016C163.445 17.6328 163.352 17.1406 163.352 16.625C163.352 16.1094 163.445 15.6172 163.633 15.1484C163.836 14.6797 164.109 14.2656 164.453 13.9062C164.797 13.5469 165.203 13.2734 165.672 13.0859C166.141 12.8828 166.633 12.7812 167.148 12.7812C167.664 12.7812 168.156 12.8828 168.625 13.0859C169.094 13.2734 169.508 13.5469 169.867 13.9062C170.227 14.2656 170.5 14.6797 170.688 15.1484C170.891 15.6172 170.992 16.1094 170.992 16.625C170.992 17.1406 170.891 17.6328 170.688 18.1016C170.5 18.5703 170.227 18.9688 169.867 19.2969C169.508 19.6406 169.094 19.9141 168.625 20.1172C168.156 20.3047 167.664 20.3984 167.148 20.3984ZM163.891 47.2812C162.359 47.2812 161.148 46.8281 160.258 45.9219C159.258 44.9219 158.758 43.4609 158.758 41.5391C158.758 40.6328 158.883 39.5859 159.133 38.3984L162.391 23H169.305L165.859 39.3125C165.734 39.7188 165.672 40.2344 165.672 40.8594C165.672 41.5156 165.82 41.9766 166.117 42.2422C166.43 42.5078 166.93 42.6406 167.617 42.6406C168.086 42.6406 168.539 42.5391 168.977 42.3359C169.43 42.1172 169.844 41.8203 170.219 41.4453C170.984 40.6797 171.562 39.6641 171.953 38.3984H173.969C173.109 40.8203 172.031 42.75 170.734 44.1875C169.641 45.3594 168.406 46.2031 167.031 46.7188C166.031 47.0938 164.984 47.2812 163.891 47.2812ZM178.844 47.2812C176.484 47.2812 174.664 46.6875 173.383 45.5C172.023 44.2344 171.344 42.2891 171.344 39.6641C171.344 38.6797 171.445 37.5859 171.648 36.3828C171.836 35.1797 172.125 33.9766 172.516 32.7734C172.953 31.4297 173.508 30.1562 174.18 28.9531C174.867 27.75 175.664 26.6875 176.57 25.7656C178.664 23.6406 181.242 22.5781 184.305 22.5781C186.258 22.5781 187.68 23.0469 188.57 23.9844C189.258 24.7188 189.602 25.7812 189.602 27.1719C189.602 28.5312 189.305 29.8125 188.711 31.0156C188.117 32.2031 187.297 33.2578 186.25 34.1797C185.203 35.0859 184.016 35.8125 182.688 36.3594C181.359 36.8906 179.984 37.2031 178.562 37.2969C178.484 38.1094 178.445 38.75 178.445 39.2188C178.445 40.7812 178.742 41.8594 179.336 42.4531C179.852 42.9844 180.711 43.25 181.914 43.25C183.648 43.25 185.234 42.7812 186.672 41.8438C187.281 41.4531 187.867 40.9922 188.43 40.4609C188.992 39.9141 189.648 39.2266 190.398 38.3984H192.039C190.523 40.9609 188.781 43 186.812 44.5156C184.391 46.3594 181.734 47.2812 178.844 47.2812ZM178.938 35C179.828 34.9375 180.695 34.6797 181.539 34.2266C182.383 33.7734 183.133 33.1797 183.789 32.4453C184.445 31.6953 184.961 30.8594 185.336 29.9375C185.711 29 185.898 28.0469 185.898 27.0781C185.898 26.4375 185.805 25.9531 185.617 25.625C185.445 25.2812 185.141 25.1094 184.703 25.1094C184.125 25.1094 183.539 25.3906 182.945 25.9531C182.367 26.5156 181.805 27.2891 181.258 28.2734C180.758 29.1953 180.305 30.2422 179.898 31.4141C179.492 32.5859 179.172 33.7812 178.938 35ZM211.938 14.9375C210.953 14.9687 210.086 15.1562 209.336 15.5C208.602 15.8281 207.969 16.3516 207.438 17.0703C206.281 18.6484 205.703 21.25 205.703 24.875C205.703 25.9062 205.82 26.7031 206.055 27.2656C206.117 27.4688 206.195 27.6484 206.289 27.8047C206.352 27.9141 206.383 28.0234 206.383 28.1328C204.664 28.1328 203.391 27.7891 202.562 27.1016C201.672 26.3516 201.227 25.1406 201.227 23.4688C201.227 21.8125 201.531 20.2422 202.141 18.7578C202.766 17.2734 203.711 15.9688 204.977 14.8438C206.336 13.625 208.062 12.6797 210.156 12.0078C212.266 11.3359 214.75 11 217.609 11C218.156 11 218.703 11.0312 219.25 11.0938L220.469 11.2109C221.922 11.3672 222.867 11.4609 223.305 11.4922C223.977 11.5547 224.734 11.5859 225.578 11.5859C227.281 11.5859 228.719 11.3906 229.891 11C229.75 11.4062 229.602 11.9453 229.445 12.6172C229.102 13.9609 228.461 15.0234 227.523 15.8047C226.977 16.2578 226.25 16.5781 225.344 16.7656C223.406 16.7656 221.164 16.4609 218.617 15.8516L216.602 25.3906H223.609L222.836 28.9531H215.828L211.938 47H205.023L211.938 14.9375ZM230.852 20.3984C230.336 20.3984 229.844 20.3047 229.375 20.1172C228.906 19.9141 228.5 19.6406 228.156 19.2969C227.812 18.9688 227.539 18.5703 227.336 18.1016C227.148 17.6328 227.055 17.1406 227.055 16.625C227.055 16.1094 227.148 15.6172 227.336 15.1484C227.539 14.6797 227.812 14.2656 228.156 13.9062C228.5 13.5469 228.906 13.2734 229.375 13.0859C229.844 12.8828 230.336 12.7812 230.852 12.7812C231.367 12.7812 231.859 12.8828 232.328 13.0859C232.797 13.2734 233.211 13.5469 233.57 13.9062C233.93 14.2656 234.203 14.6797 234.391 15.1484C234.594 15.6172 234.695 16.1094 234.695 16.625C234.695 17.1406 234.594 17.6328 234.391 18.1016C234.203 18.5703 233.93 18.9688 233.57 19.2969C233.211 19.6406 232.797 19.9141 232.328 20.1172C231.859 20.3047 231.367 20.3984 230.852 20.3984ZM227.594 47.2812C226.062 47.2812 224.852 46.8281 223.961 45.9219C222.961 44.9219 222.461 43.4609 222.461 41.5391C222.461 40.6328 222.586 39.5859 222.836 38.3984L226.094 23H233.008L229.562 39.3125C229.438 39.7188 229.375 40.2344 229.375 40.8594C229.375 41.5156 229.523 41.9766 229.82 42.2422C230.133 42.5078 230.633 42.6406 231.32 42.6406C231.789 42.6406 232.242 42.5391 232.68 42.3359C233.133 42.1172 233.547 41.8203 233.922 41.4453C234.688 40.6797 235.266 39.6641 235.656 38.3984H237.672C236.812 40.8203 235.734 42.75 234.438 44.1875C233.344 45.3594 232.109 46.2031 230.734 46.7188C229.734 47.0938 228.688 47.2812 227.594 47.2812ZM240.438 47.2812C238.906 47.2812 237.695 46.8281 236.805 45.9219C235.805 44.9219 235.305 43.4609 235.305 41.5391C235.305 40.6328 235.43 39.5859 235.68 38.3984L240.812 14.3516L247.914 13.3906L242.406 39.3125C242.281 39.7188 242.219 40.2344 242.219 40.8594C242.219 41.5156 242.367 41.9766 242.664 42.2422C242.977 42.5078 243.477 42.6406 244.164 42.6406C244.633 42.6406 245.086 42.5391 245.523 42.3359C245.977 42.1172 246.391 41.8203 246.766 41.4453C247.531 40.6797 248.109 39.6641 248.5 38.3984H250.516C249.656 40.8203 248.578 42.75 247.281 44.1875C246.188 45.3594 244.953 46.2031 243.578 46.7188C242.578 47.0938 241.531 47.2812 240.438 47.2812ZM277.703 47.2812C275.719 47.2812 274.25 46.7188 273.297 45.5938C272.469 44.625 272.055 43.3828 272.055 41.8672C272.055 41.1484 272.141 40.3125 272.312 39.3594C272.5 38.4062 272.773 37.1797 273.133 35.6797C273.492 34.1484 273.758 32.9297 273.93 32.0234C274.117 31.1016 274.211 30.3047 274.211 29.6328C274.211 27.9922 273.633 27.1719 272.477 27.1719C271.664 27.1719 270.914 27.6016 270.227 28.4609C269.648 29.1953 269.148 30.2422 268.727 31.6016L265.469 47H258.555L262.07 30.4297C262.164 30.0547 262.211 29.6562 262.211 29.2344C262.211 28.5938 262.109 28.1016 261.906 27.7578C261.641 27.3359 261.258 27.125 260.758 27.125C259.852 27.125 259.062 27.5625 258.391 28.4375C257.797 29.1875 257.289 30.2422 256.867 31.6016L253.609 47H246.695L251.781 23H258.695L258.18 25.4844C259.117 24.4375 260.141 23.6953 261.25 23.2578C262.125 22.9297 263.055 22.7656 264.039 22.7656C265.383 22.7656 266.453 23.0781 267.25 23.7031C268.141 24.4062 268.711 25.4688 268.961 26.8906C269.992 25.2969 271.18 24.1719 272.523 23.5156C273.477 23.0469 274.516 22.8125 275.641 22.8125C277.25 22.8125 278.523 23.2344 279.461 24.0781C280.461 25 280.961 26.3828 280.961 28.2266C280.961 29.2734 280.766 30.7188 280.375 32.5625C280.219 33.3281 280.031 34.1016 279.812 34.8828C279.422 36.3828 279.102 37.7656 278.852 39.0312C278.727 39.6875 278.664 40.2188 278.664 40.625C278.664 41.2656 278.805 41.7656 279.086 42.125C279.383 42.4688 279.883 42.6406 280.586 42.6406C281.539 42.6406 282.344 42.25 283 41.4688C283.5 40.875 284.039 39.8516 284.617 38.3984H286.633C285.445 41.9141 283.945 44.375 282.133 45.7812C280.852 46.7812 279.375 47.2812 277.703 47.2812Z" fill="white"/>
</svg>
