<svg width="16" height="16" viewBox="0 0 16 16" fill="none" xmlns="http://www.w3.org/2000/svg">
<path d="M9.77983 12.7799C9.6392 12.9204 9.44858 12.9993 9.24983 12.9993C9.05108 12.9993 8.86045 12.9204 8.71983 12.7799L4.46983 8.52994C4.32938 8.38932 4.25049 8.19869 4.25049 7.99994C4.25049 7.80119 4.32938 7.61057 4.46983 7.46994L8.71983 3.21994C8.86209 3.08754 9.05014 3.01543 9.24446 3.01879C9.43878 3.02215 9.62423 3.1007 9.76183 3.23794C9.89907 3.37555 9.97763 3.561 9.98098 3.75531C9.98434 3.94963 9.91224 4.13768 9.77983 4.27994L6.05983 7.99994L9.77983 11.7199C9.92028 11.8606 9.99917 12.0512 9.99917 12.2499C9.99917 12.4487 9.92028 12.6393 9.77983 12.7799Z" fill="white"/>
</svg>
