<svg width="16" height="16" viewBox="0 0 16 16" fill="none" xmlns="http://www.w3.org/2000/svg">
<g clip-path="url(#clip0_401_10)">
<path d="M8 2.74999V13.25C7.99968 13.3933 7.95837 13.5335 7.88095 13.6541C7.80354 13.7746 7.69324 13.8705 7.56309 13.9305C7.43293 13.9904 7.28835 14.0118 7.1464 13.9923C7.00446 13.9727 6.87108 13.9129 6.762 13.82L3.473 11H1.75C1.28587 11 0.840752 10.8156 0.512563 10.4874C0.184374 10.1592 0 9.71412 0 9.24999L0 6.74999C0 5.78399 0.784 4.99999 1.75 4.99999H3.472L6.762 2.17999C6.87094 2.08664 7.00437 2.0265 7.14647 2.00669C7.28856 1.98689 7.43335 2.00825 7.56367 2.06825C7.69398 2.12825 7.80436 2.22437 7.88169 2.34521C7.95903 2.46604 8.00009 2.60652 8 2.74999ZM11.28 5.21999L13 6.93999L14.72 5.21999C14.8623 5.08758 15.0503 5.01548 15.2446 5.01883C15.4389 5.02219 15.6244 5.10075 15.762 5.23799C15.8992 5.37559 15.9778 5.56104 15.9812 5.75536C15.9845 5.94968 15.9124 6.13773 15.78 6.27999L14.06 7.99999L15.78 9.71999C15.8787 9.81166 15.9509 9.92826 15.9889 10.0575C16.0269 10.1868 16.0294 10.3239 15.996 10.4544C15.9626 10.5849 15.8947 10.704 15.7993 10.7992C15.7039 10.8943 15.5846 10.962 15.454 10.995C15.3236 11.0284 15.1867 11.0261 15.0575 10.9882C14.9283 10.9504 14.8117 10.8785 14.72 10.78L13 9.05999L11.28 10.78C11.1883 10.8787 11.0717 10.9509 10.9425 10.9889C10.8132 11.0269 10.6761 11.0294 10.5456 10.996C10.4151 10.9626 10.296 10.8947 10.2008 10.7993C10.1057 10.7039 10.038 10.5846 10.005 10.454C9.97158 10.3236 9.97391 10.1866 10.0117 10.0575C10.0496 9.92831 10.1215 9.81173 10.22 9.71999L11.94 7.99999L10.22 6.27999C10.1213 6.18832 10.0491 6.07172 10.0111 5.94247C9.97308 5.81322 9.97063 5.67611 10.004 5.54558C10.0374 5.41506 10.1053 5.29595 10.2007 5.20081C10.2961 5.10567 10.4154 5.03802 10.546 5.00499C10.6764 4.97157 10.8133 4.9739 10.9425 5.01174C11.0717 5.04957 11.1883 5.12151 11.28 5.21999ZM4.238 6.31999C4.10192 6.43613 3.9289 6.49995 3.75 6.49999H1.75C1.6837 6.49999 1.62011 6.52633 1.57322 6.57321C1.52634 6.6201 1.5 6.68369 1.5 6.74999V9.24999C1.5 9.38799 1.612 9.49999 1.75 9.49999H3.75C3.929 9.49999 4.102 9.56399 4.238 9.67999L6.5 11.62V4.37999L4.238 6.31999Z" fill="white"/>
</g>
<defs>
<clipPath id="clip0_401_10">
<rect width="16" height="16" fill="white"/>
</clipPath>
</defs>
</svg>
